<?xml version="1.0" encoding="UTF-8"?>
<!DOCTYPE svg PUBLIC "-//W3C//DTD SVG 1.1//EN" "http://www.w3.org/Graphics/SVG/1.1/DTD/svg11.dtd">
<svg xmlns="http://www.w3.org/2000/svg" version="1.1" width="712px" height="712px" style="shape-rendering:geometricPrecision; text-rendering:geometricPrecision; image-rendering:optimizeQuality; fill-rule:evenodd; clip-rule:evenodd" xmlns:xlink="http://www.w3.org/1999/xlink">
<g><path style="opacity:0.982" fill="#00dd00" d="M 333.5,107.5 C 429.727,102.704 505.893,139.037 562,216.5C 608.784,290.898 616.45,369.231 585,451.5C 548.53,531.958 487.03,581.458 400.5,600C 306.044,613.855 227.21,585.355 164,514.5C 109.593,444.796 94.2597,367.13 118,281.5C 148.758,192.742 209.591,136.575 300.5,113C 311.575,110.731 322.575,108.897 333.5,107.5 Z M 354.5,155.5 C 438.27,159.164 499.103,198.164 537,272.5C 558.45,323.168 560.117,374.502 542,426.5C 514.357,492.909 465.524,534.409 395.5,551C 319.77,563.646 255.937,541.813 204,485.5C 155.76,425.071 144.094,358.071 169,284.5C 196.643,218.091 245.476,176.591 315.5,160C 328.549,157.576 341.549,156.076 354.5,155.5 Z"/></g>
<g><path style="opacity:0.982" fill="#00dd00" d="M 459.5,259.5 C 465.026,258.711 470.026,259.878 474.5,263C 481.969,271.47 489.802,279.637 498,287.5C 500.226,292.686 499.893,297.686 497,302.5C 445.861,352.639 395.028,403.139 344.5,454C 336.167,461.667 327.833,469.333 319.5,477C 315.375,477.854 311.375,477.52 307.5,476C 276.667,445.167 245.833,414.333 215,383.5C 210.769,377.746 210.436,371.746 214,365.5C 221.833,357.667 229.667,349.833 237.5,342C 244.09,337.229 250.424,337.562 256.5,343C 275.638,363.138 295.138,382.972 315,402.5C 362.756,354.243 410.923,306.576 459.5,259.5 Z"/></g>
</svg>
