<?xml version="1.0" encoding="UTF-8"?>
<!DOCTYPE svg PUBLIC "-//W3C//DTD SVG 1.1//EN" "http://www.w3.org/Graphics/SVG/1.1/DTD/svg11.dtd">
<svg xmlns="http://www.w3.org/2000/svg" version="1.1" width="712px" height="712px" style="shape-rendering:geometricPrecision; text-rendering:geometricPrecision; image-rendering:optimizeQuality; fill-rule:evenodd; clip-rule:evenodd" xmlns:xlink="http://www.w3.org/1999/xlink">
<g><path style="opacity:0.994" fill="#00dd00" d="M 333.5,107.5 C 429.727,102.704 505.893,139.037 562,216.5C 604.224,282.733 614.557,353.733 593,429.5C 565.167,510.667 510.667,565.167 429.5,593C 343.867,616.74 266.2,601.406 196.5,547C 125.251,483.942 96.7512,405.108 111,310.5C 129.542,223.97 179.042,162.47 259.5,126C 283.428,116.351 308.095,110.185 333.5,107.5 Z M 473.5,253.5 C 477.747,253.178 481.747,254.011 485.5,256C 494.333,264.833 503.167,273.667 512,282.5C 515.333,288.5 515.333,294.5 512,300.5C 449.5,363 387,425.5 324.5,488C 318.5,491.333 312.5,491.333 306.5,488C 270.667,452.167 234.833,416.333 199,380.5C 195.667,374.5 195.667,368.5 199,362.5C 207.833,353.667 216.667,344.833 225.5,336C 231.196,332.743 236.862,332.743 242.5,336C 266.68,360.347 291.014,384.514 315.5,408.5C 366.653,357.847 417.653,307.014 468.5,256C 470.315,255.243 471.981,254.41 473.5,253.5 Z"/></g>
</svg>
