<?xml version="1.0" encoding="UTF-8"?>
<!DOCTYPE svg PUBLIC "-//W3C//DTD SVG 1.1//EN" "http://www.w3.org/Graphics/SVG/1.1/DTD/svg11.dtd">
<svg xmlns="http://www.w3.org/2000/svg" version="1.1" width="712px" height="712px" style="shape-rendering:geometricPrecision; text-rendering:geometricPrecision; image-rendering:optimizeQuality; fill-rule:evenodd; clip-rule:evenodd" xmlns:xlink="http://www.w3.org/1999/xlink">
<g><path style="opacity:0.983" fill="#ff99cc" d="M 226.5,131.5 C 276.487,127.825 319.487,143.158 355.5,177.5C 404.307,132.237 460.307,120.404 523.5,142C 573.713,165.89 602.879,205.39 611,260.5C 614.759,300.801 605.092,337.468 582,370.5C 518.588,437.58 454.088,503.747 388.5,569C 366.5,584.333 344.5,584.333 322.5,569C 260.305,506.472 198.471,443.638 137,380.5C 100.357,335.237 90.3572,284.57 107,228.5C 122.981,186.853 151.481,157.353 192.5,140C 203.73,136.192 215.063,133.359 226.5,131.5 Z M 234.5,179.5 C 264.763,177.866 291.429,186.699 314.5,206C 328.375,219.708 342.041,233.541 355.5,247.5C 368.959,233.541 382.625,219.708 396.5,206C 429.595,178.595 466.262,172.595 506.5,188C 547.336,210.25 565.836,244.75 562,291.5C 559.635,309.937 552.968,326.604 542,341.5C 480.711,405.623 418.545,468.956 355.5,531.5C 293.818,469.985 232.651,407.985 172,345.5C 144.605,308.692 140.938,269.692 161,228.5C 177.919,200.74 202.419,184.406 234.5,179.5 Z"/></g>
</svg>
