<?xml version="1.0" encoding="UTF-8"?>
<!DOCTYPE svg PUBLIC "-//W3C//DTD SVG 1.1//EN" "http://www.w3.org/Graphics/SVG/1.1/DTD/svg11.dtd">
<svg xmlns="http://www.w3.org/2000/svg" version="1.1" width="712px" height="712px" style="shape-rendering:geometricPrecision; text-rendering:geometricPrecision; image-rendering:optimizeQuality; fill-rule:evenodd; clip-rule:evenodd" xmlns:xlink="http://www.w3.org/1999/xlink">
<g><path style="opacity:0.996" fill="#ff99cc" d="M 216.5,131.5 C 256.921,128.144 292.921,138.978 324.5,164C 334.627,174.293 344.96,184.46 355.5,194.5C 366.04,184.46 376.373,174.293 386.5,164C 434.671,127.025 486.337,121.358 541.5,147C 581.306,171.397 604.472,206.897 611,253.5C 615.349,295.772 604.016,333.105 577,365.5C 509.5,435 442,504.5 374.5,574C 361.833,581.333 349.167,581.333 336.5,574C 268.667,504.167 200.833,434.333 133,364.5C 97.5499,318.932 89.8832,268.932 110,214.5C 130.735,167.734 166.235,140.067 216.5,131.5 Z"/></g>
</svg>
